# xmcd
#
# Track frame offsets: 
#        182
#        12195
#        28305
#        42715
#        55712
#        73032
#        88490
#        103322
#        115792
#        136107
#
# Disc length: 1998 seconds
#
# Revision: 0
# Processed by: cddbd v1.5.2PL0 Copyright (c) Steve Scherf et al.
# Submitted via: ExactAudioCopy v0.99pb3
#
DISCID=8f07cc0a
DTITLE=Cajo and Castanha - Solidão De Um Caminhoneiro
DYEAR=1900
DGENRE=Embolada
TTITLE0=Solidão De Um Caminhoneiro
TTITLE1=Cabelo Funk
TTITLE2=Meu Velho Pai
TTITLE3=Repentista Do Mundo
TTITLE4=Melo Da Cpi (O Pacotão
TTITLE5=Prá Não Morrer De Tristeza
TTITLE6=No Pé Da Serra
TTITLE7=Filho Mamador
TTITLE8=O Ladrão Besta E O Ladrão Sabido
TTITLE9=São Paulo E Corintians
EXTD=
EXTT0=
EXTT1=
EXTT2=
EXTT3=
EXTT4=
EXTT5=
EXTT6=
EXTT7=
EXTT8=
EXTT9=
PLAYORDER=
